<?xml version="1.0" encoding="UTF-8" standalone="no"?>
<!-- Created with Inkscape (http://www.inkscape.org/) -->

<svg
   xmlns:dc="http://purl.org/dc/elements/1.1/"
   xmlns:cc="http://creativecommons.org/ns#"
   xmlns:rdf="http://www.w3.org/1999/02/22-rdf-syntax-ns#"
   xmlns:svg="http://www.w3.org/2000/svg"
   xmlns="http://www.w3.org/2000/svg"
   xmlns:sodipodi="http://sodipodi.sourceforge.net/DTD/sodipodi-0.dtd"
   xmlns:inkscape="http://www.inkscape.org/namespaces/inkscape"
   id="svg4155"
   version="1.1"
   inkscape:version="0.91 r13725"
   xml:space="preserve"
   width="639"
   height="485.99997"
   viewBox="0 0 639 485.99997"
   sodipodi:docname="category.svg"
   inkscape:export-filename="/home/tonghuix/git-pro/fsfs-tong/docs/category-zh.png"
   inkscape:export-xdpi="100"
   inkscape:export-ydpi="100"><metadata
     id="metadata4161"><rdf:RDF><cc:Work
         rdf:about=""><dc:format>image/svg+xml</dc:format><dc:type
           rdf:resource="http://purl.org/dc/dcmitype/StillImage" /><dc:title></dc:title></cc:Work></rdf:RDF></metadata><defs
     id="defs4159" /><sodipodi:namedview
     pagecolor="#ffffff"
     bordercolor="#666666"
     borderopacity="1"
     objecttolerance="10"
     gridtolerance="10"
     guidetolerance="10"
     inkscape:pageopacity="0"
     inkscape:pageshadow="2"
     inkscape:window-width="1920"
     inkscape:window-height="1016"
     id="namedview4157"
     showgrid="false"
     inkscape:zoom="1.1988807"
     inkscape:cx="385.4911"
     inkscape:cy="305.50727"
     inkscape:window-x="0"
     inkscape:window-y="27"
     inkscape:window-maximized="1"
     inkscape:current-layer="g4165" /><g
     id="g4163"
     inkscape:groupmode="layer"
     inkscape:label="category"
     transform="matrix(1.25,0,0,-1.25,0,485.99998)"><g
       id="g4165"><g
         id="g4167"
         transform="matrix(1,0,0,-1,0,388.79999)"><path
           d="m 43.793,125.793 192.187,0 c 5.899,0 10.649,4.746 10.649,10.645 l 0,9.152 c 0,5.898 -4.75,10.648 -10.649,10.648 l -192.187,0 c -5.898,0 -10.645,-4.75 -10.645,-10.648 l 0,-9.152 c 0,-5.899 4.747,-10.645 10.645,-10.645 z"
           style="fill:none;stroke:#000000;stroke-width:0.717785;stroke-linecap:butt;stroke-linejoin:miter;stroke-miterlimit:4;stroke-dasharray:none;stroke-opacity:1"
           id="path4169"
           inkscape:connector-curvature="0" /></g><g
         id="g4171"
         transform="matrix(1,0,0,-1,0,388.79999)"><path
           d="m 43.793,64.781 192.187,0 c 5.899,0 10.649,4.746 10.649,10.645 l 0,29.492 c 0,5.898 -4.75,10.644 -10.649,10.644 l -192.187,0 c -5.898,0 -10.645,-4.746 -10.645,-10.644 l 0,-29.492 c 0,-5.899 4.747,-10.645 10.645,-10.645 z"
           style="fill:none;stroke:#000000;stroke-width:0.717785;stroke-linecap:butt;stroke-linejoin:miter;stroke-miterlimit:4;stroke-dasharray:none;stroke-opacity:1"
           id="path4173"
           inkscape:connector-curvature="0" /></g><g
         id="g4175"
         transform="matrix(1,0,0,-1,0,388.79999)"><path
           d="m 310.691,293.574 146.426,0 c 5.899,0 10.649,4.75 10.649,10.649 l 0,24.402 c 0,5.898 -4.75,10.648 -10.649,10.648 l -146.426,0 c -5.898,0 -10.648,-4.75 -10.648,-10.648 l 0,-24.402 c 0,-5.899 4.75,-10.649 10.648,-10.649 z"
           style="fill:none;stroke:#000000;stroke-width:0.717785;stroke-linecap:butt;stroke-linejoin:miter;stroke-miterlimit:4;stroke-dasharray:none;stroke-opacity:1"
           id="path4177"
           inkscape:connector-curvature="0" /></g><g
         id="g4179"
         transform="matrix(1,0,0,-1,0,388.79999)"><path
           d="m 59.047,232.562 161.68,0 c 5.898,0 10.648,4.75 10.648,10.649 l 0,24.402 c 0,5.899 -4.75,10.649 -10.648,10.649 l -161.68,0 c -5.899,0 -10.649,-4.75 -10.649,-10.649 l 0,-24.402 c 0,-5.899 4.75,-10.649 10.649,-10.649 z"
           style="fill:none;stroke:#000000;stroke-width:0.717785;stroke-linecap:butt;stroke-linejoin:miter;stroke-miterlimit:4;stroke-dasharray:none;stroke-opacity:1"
           id="path4181"
           inkscape:connector-curvature="0" /></g><g
         id="g4183"
         transform="matrix(1,0,0,-1,0,388.79999)"><path
           d="m 43.793,186.805 192.187,0 c 5.899,0 10.649,4.746 10.649,10.644 l 0,93.074 c 0,5.899 -4.75,10.649 -10.649,10.649 l -192.187,0 c -5.898,0 -10.645,-4.75 -10.645,-10.649 l 0,-93.074 c 0,-5.898 4.747,-10.644 10.645,-10.644 z"
           style="fill:none;stroke:#000000;stroke-width:0.717785;stroke-linecap:butt;stroke-linejoin:miter;stroke-miterlimit:4;stroke-dasharray:none;stroke-opacity:1"
           id="path4185"
           inkscape:connector-curvature="0" /></g><g
         id="g4187"
         transform="matrix(1,0,0,-1,0,388.79999)"><path
           d="m 310.691,143.559 146.426,0 c 5.899,0 10.649,4.746 10.649,10.644 l 0,67.652 c 0,5.899 -4.75,10.649 -10.649,10.649 l -146.426,0 c -5.898,0 -10.648,-4.75 -10.648,-10.649 l 0,-67.652 c 0,-5.898 4.75,-10.644 10.648,-10.644 z"
           style="fill:none;stroke:#000000;stroke-width:0.717785;stroke-linecap:butt;stroke-linejoin:miter;stroke-miterlimit:4;stroke-dasharray:none;stroke-opacity:1"
           id="path4189"
           inkscape:connector-curvature="0" /></g><g
         id="g4191"
         transform="matrix(1,0,0,-1,0,388.79999)"><path
           d="m 261.941,1.195 246.559,0 0,386.348 -246.559,0 0,-386.348 z"
           style="fill:none;stroke:#000000;stroke-width:0.717785;stroke-linecap:butt;stroke-linejoin:miter;stroke-miterlimit:4;stroke-dasharray:none;stroke-opacity:1"
           id="path4193"
           inkscape:connector-curvature="0" /></g><g
         id="g4195"
         transform="matrix(1,0,0,-1,0,388.79999)"><path
           d="m 85.125,329.043 2.035,2.992 2.035,2.692 2.211,2.75 2.215,2.695 2.453,2.512 2.571,2.453 2.75,2.332 2.753,2.332 2.93,2.152 3.051,2.094 3.172,1.973 3.347,1.914 3.411,1.855 3.589,1.734 3.649,1.676 3.765,1.555 3.891,1.496 4.067,1.434 4.066,1.316 4.129,1.258 4.305,1.074 4.367,1.02 4.367,1.015 4.488,0.957 4.543,0.778 4.606,0.839 4.547,0.715 4.667,0.598 4.723,0.601 4.668,0.536 4.785,0.48 4.785,0.418 4.786,0.418 4.722,0.418 4.906,0.301 4.965,0.301 5.024,0.296 4.965,0.301 4.488,0.18 4.484,0.238 4.547,0.18 4.664,0.238 4.668,0.059 4.785,0.242 4.903,0.059 4.965,0.238 5.085,0.121 5.086,0.059 5.203,0.121 5.262,0 5.324,0 5.383,0.117 5.383,-0.117 5.504,0 5.504,-0.121 5.562,-0.059 5.504,-0.121 5.563,-0.238 5.621,-0.059 5.504,-0.301 5.441,-0.238 5.504,-0.301 5.383,-0.297 5.387,-0.418 5.32,-0.422 5.266,-0.359 5.082,-0.535 5.027,-0.481 4.965,-0.539 4.785,-0.597 4.664,-0.598 4.547,-0.598 4.484,-0.718 4.309,-0.719 4.125,-0.715 4.07,-0.84 3.887,-0.777 3.769,-0.957 3.528,-0.895 3.469,-0.898 3.351,-1.016 3.289,-1.019 3.051,-1.137 2.93,-1.016 3.468,-1.437 3.114,-1.492 3.168,-1.555 2.871,-1.738 2.812,-1.735 2.692,-1.672 2.394,-1.976 2.332,-1.914 2.274,-2.031 2.031,-2.157 1.914,-2.211 1.734,-2.273 1.617,-2.332 1.555,-2.332 1.317,-2.516 1.195,-2.449 1.015,-2.574 0.958,-2.633 0.66,-2.512 0.656,-2.633 0.359,-2.691 0.36,-2.75 0.179,-2.633 0.121,-2.633 -0.121,-2.629 -0.179,-2.574 -0.36,-2.629 -0.476,-2.515 -0.539,-2.571 -0.598,-2.453 -0.719,-2.39 -0.777,-2.453 -0.957,-2.332 -1.016,-2.274 -1.019,-2.215 -1.074,-2.273 -1.258,-2.211 -1.196,-2.035 -1.734,-2.75 -1.734,-2.512 -1.914,-2.695 -2.036,-2.512 -2.152,-2.57 -2.332,-2.512 -2.336,-2.453 -2.57,-2.453 -2.633,-2.391 -2.75,-2.453 -2.934,-2.453 -2.929,-2.332 -3.051,-2.274 -3.051,-2.332 -3.168,-2.093 -3.23,-2.157 -3.289,-2.031 -3.231,-1.914 -3.293,-1.977 -3.226,-1.793 -3.231,-1.613 -3.172,-1.676 -3.168,-1.496 -3.113,-1.433 -3.051,-1.438 -3.05,-1.195 -2.989,-1.258 -2.812,-1.016 -2.871,-1.078 -2.871,-0.957 -3.231,-1.015 -3.168,-1.016 -3.113,-0.898 -3.289,-0.778 -3.11,-0.836 -3.172,-0.718 -3.289,-0.719 -3.23,-0.598 -3.168,-0.597 -3.23,-0.598 -3.172,-0.539 -3.11,-0.481 -3.172,-0.418 -3.05,-0.539 -2.93,-0.418 -2.871,-0.297 -2.871,-0.359 -2.633,-0.359 -2.633,-0.36 -2.449,-0.3 -2.453,-0.356 -2.215,-0.301 -2.152,-0.359 -2.094,-0.359 -1.973,-0.36 -1.914,-0.297 -2.035,-0.539 -1.914,-0.48 -1.973,-0.535 -1.797,-0.719 -1.851,-0.719 -1.735,-0.719 -1.734,-0.894 -1.738,-1.02 -1.492,-1.136 -1.618,-1.196 -1.433,-1.316 -1.438,-1.434 -1.316,-1.496 -1.195,-1.734 -1.254,-1.856 -1.02,-1.914 -0.894,-1.972 -0.899,-2.094 -0.719,-2.274 -0.597,-2.332 -0.656,-2.453 -0.481,-2.633 -0.418,-2.632 -0.301,-2.871 -0.179,-2.332 -0.239,-2.512 -0.121,-2.633 -0.058,-2.75 0,-2.871 -0.121,-2.93 0,-3.172 0.121,-3.168 0,-3.351 0.058,-3.41 0.121,-3.59 0.121,-3.528 0.18,-3.707 0.117,-3.648 0.18,-3.77 0.121,-3.769 0.18,-3.648 0.117,-3.77 0.242,-3.648 0.059,-3.528 0.238,-3.59 0.063,-3.468 0.117,-3.352 0.121,-3.23 0,-3.047 0,-3.051 0,-2.992 0,-2.813 -0.121,-2.633 0,-2.691 -0.18,-2.512 -0.238,-2.453 -0.18,-2.332 -0.301,-2.332 -0.297,-2.215 -0.418,-2.269 -0.539,-2.157 -0.597,-2.031 -0.719,-2.035 -0.719,-2.035 -0.894,-1.914 -1.02,-1.793 -1.137,-1.856 -1.074,-1.734 -1.437,-1.613 -1.434,-1.617 -1.496,-1.434 -1.734,-1.438 -1.735,-1.312 -1.976,-1.316 -2.032,-1.137 -2.035,-1.137 -2.211,-1.019 -2.336,-0.895 -2.57,-0.898 -2.512,-0.836 -2.632,-0.719 -2.871,-0.719 -2.813,-0.656 -3.051,-0.539 -2.75,-0.481 -2.75,-0.535 -2.992,-0.422 -3.051,-0.418 -3.109,-0.296 -3.289,-0.301 -3.41,-0.297 -3.469,-0.301 -3.652,-0.18 -3.766,-0.238 -3.891,-0.18 -3.945,-0.121 -4.066,-0.117 -4.071,0 -4.304,0 -4.129,0 -4.305,0.117 -4.25,0.239 -4.363,0.179 -4.309,0.18 -4.246,0.301 -4.187,0.418 -4.247,0.418 -4.066,0.418 -4.07,0.48 -3.946,0.539 -3.769,0.598 -3.77,0.719 -3.648,0.597 -3.59,0.836 -3.469,0.719 -3.23,0.898 -3.289,0.836 -3.051,1.016 -2.93,0.898 -2.812,1.137 -2.988,1.078 -2.813,1.254 -2.754,1.317 -2.629,1.437 -2.574,1.492 -2.512,1.617 -2.453,1.614 -2.332,1.855 -2.332,2.035 -2.273,2.032 -2.153,2.214 -2.035,2.391 -2.035,2.395 -1.914,2.57 -1.793,2.754 -1.734,2.808 -1.735,2.993 -1.613,3.109 -1.559,3.172 -1.433,3.347 -1.317,3.352 -1.195,3.59 -1.258,3.527 -1.074,3.649 -1.02,3.886 -0.957,3.77 -0.894,3.949 -0.84,4.008 -0.656,4.125 -0.719,4.07 -0.719,4.305 -0.597,4.367 -0.539,4.485 -0.477,4.546 -0.418,3.77 -0.422,3.887 -0.418,3.949 -0.297,4.066 -0.3,4.246 -0.297,4.309 -0.301,4.367 -0.238,4.543 -0.18,4.606 -0.18,4.789 -0.121,4.785 -0.117,4.844 -0.121,4.964 0,5.082 0.121,5.207 0.117,5.204 0.121,5.203 0.18,5.265 0.18,5.262 0.296,5.324 0.36,5.262 0.359,5.324 0.539,5.266 0.477,5.203 0.66,5.086 0.598,5.082 0.718,4.965 0.715,4.906 0.778,4.844 0.898,4.664 0.957,4.609 1.016,4.485 1.019,4.246 1.074,4.246 1.258,4.07 1.196,3.887 1.316,3.887 1.316,3.648 1.438,3.473 1.555,3.406 1.492,3.293 1.617,3.168 0,0 1.855,3.109 1.852,3.051 z"
           style="fill:none;stroke:#000000;stroke-width:0.717785;stroke-linecap:butt;stroke-linejoin:bevel;stroke-miterlimit:4;stroke-dasharray:none;stroke-opacity:1"
           id="path4197"
           inkscape:connector-curvature="0" /></g><text
         transform="matrix(1,0,0,-1,139.91705,64.720234)"
         style="font-variant:normal;font-weight:normal;font-size:14.65476894px;font-family:'Nimbus Roman No9 L';-inkscape-font-specification:NimbusRomanNo9L;writing-mode:lr-tb;fill:#000000;fill-opacity:1;fill-rule:nonzero;stroke:none"
         id="text4199"><tspan
           x="0"
           y="0"
           id="tspan4201"> </tspan></text>
<g
         id="g4203"
         transform="translate(0,388.79999)" /><g
         id="g4205"
         transform="matrix(1,0,0,-1,0,388.79999)"><path
           d="m 28.539,49.527 237.949,0 c 5.899,0 10.645,4.75 10.645,10.649 l 0,276.105 c 0,5.899 -4.746,10.649 -10.645,10.649 l -237.949,0 c -5.898,0 -10.644,-4.75 -10.644,-10.649 l 0,-276.105 c 0,-5.899 4.746,-10.649 10.644,-10.649 z"
           style="fill:none;stroke:#000000;stroke-width:0.717785;stroke-linecap:butt;stroke-linejoin:miter;stroke-miterlimit:4;stroke-dasharray:none;stroke-opacity:1"
           id="path4207"
           inkscape:connector-curvature="0" /></g><g
         id="g4209"
         transform="matrix(1,0,0,-1,0,388.79999)"><path
           d="m 2.641,1.195 259.238,0 0,386.348 -259.238,0 0,-386.348 z"
           style="fill:none;stroke:#000000;stroke-width:0.717785;stroke-linecap:butt;stroke-linejoin:miter;stroke-miterlimit:4;stroke-dasharray:none;stroke-opacity:1"
           id="path4211"
           inkscape:connector-curvature="0" /></g><g
         id="g4213"
         transform="matrix(1,0,0,-1,0,388.79999)" /><text
         transform="matrix(1,0,0,-1,80.38006,134.54923)"
         style="font-variant:normal;font-weight:normal;font-size:1.19630802px;font-family:'Nimbus Roman No9 L';-inkscape-font-specification:NimbusRomanNo9L;writing-mode:lr-tb;fill:#000000;fill-opacity:1;fill-rule:nonzero;stroke:none"
         id="text4215"><tspan
           x="0 0.83741558"
           y="0"
           sodipodi:role="line"
           id="tspan4217">GP</tspan></text>
<text
         transform="matrix(1,0,0,-1,106.59095,62.906116)"
         style="font-variant:normal;font-weight:normal;font-size:0.95704597px;font-family:'Nimbus Roman No9 L';-inkscape-font-specification:NimbusRomanNo9L;writing-mode:lr-tb;fill:#000000;fill-opacity:1;fill-rule:nonzero;stroke:none"
         id="text4223"><tspan
           x="0 0.47852299 0.95704597 1.3762321 1.8547552 2.0940166 2.452909 2.931432 3.4099548 3.7085533 4.1277394 4.5459685 4.7852302 5.1441221 5.6226454 5.9222007 6.1614623 6.8792467 7.2974758 7.5970311"
           y="0"
           sodipodi:role="line"
           id="tspan4225">open source software</tspan></text>
<text
         transform="matrix(1,0,0,-1,65.235991,245.21742)"
         style="font-variant:normal;font-weight:normal;font-size:0.83741498px;font-family:'Nimbus Roman No9 L';-inkscape-font-specification:NimbusRomanNo9L;writing-mode:lr-tb;fill:#000000;fill-opacity:1;fill-rule:nonzero;stroke:none"
         id="text4231"><tspan
           x="0 0.29895714 0.71766466 1.0166218 1.2561225 1.8540368 2.2132878 2.5122449 2.871496 3.1109967 3.5297043 3.9484117 4.3671193 4.725533 5.0244899 5.2639909 5.5034914 5.8619051 6.2806125 6.520113 6.9388208 7.2980719 7.5970287 8.2552366 8.4937801 8.792738 9.0916948 9.3311958 9.7499027 10.109154 10.347817 10.587318 10.826818 11.185232 11.544483 11.963191 12.262148"
           y="0"
           sodipodi:role="line"
           id="tspan4233">software under lax permissive license</tspan></text>
<text
         transform="matrix(1,0,0,-1,94.359205,306.95864)"
         style="font-variant:normal;font-weight:normal;font-size:0.95704597px;font-family:'Nimbus Roman No9 L';-inkscape-font-specification:NimbusRomanNo9L;writing-mode:lr-tb;fill:#000000;fill-opacity:1;fill-rule:nonzero;stroke:none"
         id="text4241"><tspan
           x="0 0.47852299 0.95704597 1.435569 1.6748306 1.9140919"
           y="0"
           sodipodi:role="line"
           id="tspan4243">public</tspan></text>
<text
         xml:space="preserve"
         style="font-style:normal;font-weight:normal;font-size:16px;line-height:125%;font-family:Sans;letter-spacing:0px;word-spacing:0px;writing-mode:lr-tb;fill:#000000;fill-opacity:1;stroke:none;stroke-width:1px;stroke-linecap:butt;stroke-linejoin:miter;stroke-opacity:1"
         x="135.87556"
         y="-303.39612"
         id="text4269"
         sodipodi:linespacing="125%"
         transform="scale(1,-1)"><tspan
           sodipodi:role="line"
           id="tspan4271"
           x="135.87556"
           y="-303.39612"
           style="font-style:normal;font-variant:normal;font-weight:normal;font-stretch:normal;font-family:'Noto Sans CJK SC';-inkscape-font-specification:'Noto Sans CJK SC';text-align:center;text-anchor:middle">公有领域软件</tspan><tspan
           sodipodi:role="line"
           x="135.87556"
           y="-283.39612"
           id="tspan4273"
           style="font-style:normal;font-variant:normal;font-weight:normal;font-stretch:normal;font-family:'Noto Sans CJK SC';-inkscape-font-specification:'Noto Sans CJK SC';text-align:center;text-anchor:middle">（有代码）</tspan></text>
<text
         transform="scale(1,-1)"
         sodipodi:linespacing="125%"
         id="text4275"
         y="-240.81165"
         x="138.70663"
         style="font-style:normal;font-weight:normal;font-size:16px;line-height:125%;font-family:Sans;letter-spacing:0px;word-spacing:0px;writing-mode:lr-tb;fill:#000000;fill-opacity:1;stroke:none;stroke-width:1px;stroke-linecap:butt;stroke-linejoin:miter;stroke-opacity:1"
         xml:space="preserve"><tspan
           style="font-style:normal;font-variant:normal;font-weight:normal;font-stretch:normal;font-family:'Noto Sans CJK SC';-inkscape-font-specification:'Noto Sans CJK SC';text-align:center;text-anchor:middle"
           id="tspan4279"
           y="-240.81165"
           x="138.70663"
           sodipodi:role="line">宽松许可证的软件</tspan></text>
<text
         xml:space="preserve"
         style="font-style:normal;font-weight:normal;font-size:16px;line-height:125%;font-family:Sans;letter-spacing:0px;word-spacing:0px;writing-mode:lr-tb;fill:#000000;fill-opacity:1;stroke:none;stroke-width:1px;stroke-linecap:butt;stroke-linejoin:miter;stroke-opacity:1"
         x="135.87556"
         y="-173.80971"
         id="text4302"
         sodipodi:linespacing="125%"
         transform="scale(1,-1)"><tspan
           sodipodi:role="line"
           x="135.87556"
           y="-173.80971"
           id="tspan4304"
           style="font-style:normal;font-variant:normal;font-weight:normal;font-stretch:normal;font-family:'Noto Sans CJK SC';-inkscape-font-specification:'Noto Sans CJK SC';text-align:center;text-anchor:middle">Copyleft 软件</tspan></text>
<text
         transform="scale(1,-1)"
         sodipodi:linespacing="125%"
         id="text4306"
         y="-128.51262"
         x="136.34741"
         style="font-style:normal;font-weight:normal;font-size:16px;line-height:125%;font-family:Sans;letter-spacing:0px;word-spacing:0px;writing-mode:lr-tb;fill:#000000;fill-opacity:1;stroke:none;stroke-width:1px;stroke-linecap:butt;stroke-linejoin:miter;stroke-opacity:1"
         xml:space="preserve"><tspan
           style="font-style:normal;font-variant:normal;font-weight:normal;font-stretch:normal;font-family:'Noto Sans CJK SC';-inkscape-font-specification:'Noto Sans CJK SC';text-align:center;text-anchor:middle"
           id="tspan4308"
           y="-128.51262"
           x="136.34741"
           sodipodi:role="line">GPL 许可证的软件</tspan></text>
<text
         xml:space="preserve"
         style="font-style:normal;font-weight:normal;font-size:16px;line-height:125%;font-family:Sans;letter-spacing:0px;word-spacing:0px;writing-mode:lr-tb;fill:#000000;fill-opacity:1;stroke:none;stroke-width:1px;stroke-linecap:butt;stroke-linejoin:miter;stroke-opacity:1"
         x="138.70663"
         y="-61.982525"
         id="text4310"
         sodipodi:linespacing="125%"
         transform="scale(1,-1)"><tspan
           sodipodi:role="line"
           x="138.70663"
           y="-61.982525"
           id="tspan4312"
           style="font-style:normal;font-variant:normal;font-weight:normal;font-stretch:normal;font-family:'Noto Sans CJK SC';-inkscape-font-specification:'Noto Sans CJK SC';text-align:center;text-anchor:middle">开源软件</tspan></text>
<text
         transform="scale(1,-1)"
         sodipodi:linespacing="125%"
         id="text4314"
         y="-364.90677"
         x="51.415379"
         style="font-style:normal;font-weight:normal;font-size:16px;line-height:125%;font-family:Sans;letter-spacing:0px;word-spacing:0px;writing-mode:lr-tb;fill:#000000;fill-opacity:1;stroke:none;stroke-width:1px;stroke-linecap:butt;stroke-linejoin:miter;stroke-opacity:1"
         xml:space="preserve"><tspan
           style="font-style:normal;font-variant:normal;font-weight:normal;font-stretch:normal;font-family:'Noto Sans CJK SC';-inkscape-font-specification:'Noto Sans CJK SC';text-align:center;text-anchor:middle"
           id="tspan4316"
           y="-364.90677"
           x="51.415379"
           sodipodi:role="line">自由软件</tspan></text>
<text
         xml:space="preserve"
         style="font-style:normal;font-weight:normal;font-size:16px;line-height:125%;font-family:Sans;letter-spacing:0px;word-spacing:0px;writing-mode:lr-tb;fill:#000000;fill-opacity:1;stroke:none;stroke-width:1px;stroke-linecap:butt;stroke-linejoin:miter;stroke-opacity:1"
         x="391.90228"
         y="-305.24164"
         id="text4318"
         sodipodi:linespacing="125%"
         transform="scale(1,-1)"><tspan
           sodipodi:role="line"
           x="391.90228"
           y="-305.24164"
           id="tspan4320"
           style="font-style:normal;font-variant:normal;font-weight:normal;font-stretch:normal;font-family:'Noto Sans CJK SC';-inkscape-font-specification:'Noto Sans CJK SC';text-align:center;text-anchor:middle">专有软件</tspan></text>
<text
         transform="scale(1,-1)"
         sodipodi:linespacing="125%"
         id="text4322"
         y="-208.25435"
         x="384.53769"
         style="font-style:normal;font-weight:normal;font-size:16px;line-height:125%;font-family:Sans;letter-spacing:0px;word-spacing:0px;writing-mode:lr-tb;fill:#000000;fill-opacity:1;stroke:none;stroke-width:1px;stroke-linecap:butt;stroke-linejoin:miter;stroke-opacity:1"
         xml:space="preserve"><tspan
           style="font-style:normal;font-variant:normal;font-weight:normal;font-stretch:normal;font-family:'Noto Sans CJK SC';-inkscape-font-specification:'Noto Sans CJK SC';text-align:center;text-anchor:middle"
           id="tspan4324"
           y="-208.25435"
           x="384.53769"
           sodipodi:role="line">公有领域软件</tspan><tspan
           style="font-style:normal;font-variant:normal;font-weight:normal;font-stretch:normal;font-family:'Noto Sans CJK SC';-inkscape-font-specification:'Noto Sans CJK SC';text-align:center;text-anchor:middle"
           y="-188.25435"
           x="384.53769"
           sodipodi:role="line"
           id="tspan4326">（没有代码）</tspan></text>
<text
         transform="scale(1,-1)"
         sodipodi:linespacing="125%"
         id="text4328"
         y="-65.757263"
         x="384.53769"
         style="font-style:normal;font-weight:normal;font-size:16px;line-height:125%;font-family:Sans;letter-spacing:0px;word-spacing:0px;writing-mode:lr-tb;fill:#000000;fill-opacity:1;stroke:none;stroke-width:1px;stroke-linecap:butt;stroke-linejoin:miter;stroke-opacity:1"
         xml:space="preserve"><tspan
           style="font-style:normal;font-variant:normal;font-weight:normal;font-stretch:normal;font-family:'Noto Sans CJK SC';-inkscape-font-specification:'Noto Sans CJK SC';text-align:center;text-anchor:middle"
           id="tspan4330"
           y="-65.757263"
           x="384.53769"
           sodipodi:role="line">共享软件</tspan></text>
<text
         xml:space="preserve"
         style="font-style:normal;font-weight:normal;font-size:16px;line-height:125%;font-family:Sans;letter-spacing:0px;word-spacing:0px;writing-mode:lr-tb;fill:#000000;fill-opacity:1;stroke:none;stroke-width:1px;stroke-linecap:butt;stroke-linejoin:miter;stroke-opacity:1"
         x="330.74741"
         y="-13.854354"
         id="text4332"
         sodipodi:linespacing="125%"
         transform="scale(1,-1)"><tspan
           sodipodi:role="line"
           x="330.74741"
           y="-13.854354"
           id="tspan4334"
           style="font-style:normal;font-variant:normal;font-weight:normal;font-stretch:normal;font-family:'Noto Sans CJK SC';-inkscape-font-specification:'Noto Sans CJK SC';text-align:center;text-anchor:middle">自由下载的软件</tspan></text>
</g></g></svg>