<?xml version="1.0" encoding="UTF-8" standalone="no"?>
<svg
   xmlns:dc="http://purl.org/dc/elements/1.1/"
   xmlns:cc="http://creativecommons.org/ns#"
   xmlns:rdf="http://www.w3.org/1999/02/22-rdf-syntax-ns#"
   xmlns:svg="http://www.w3.org/2000/svg"
   xmlns="http://www.w3.org/2000/svg"
   version="1.1"
   id="svg2"
   width="501"
   height="76"
   viewBox="0 0 501 76">
  <metadata
     id="metadata8">
    <rdf:RDF>
      <cc:Work
         rdf:about="">
        <dc:format>image/svg+xml</dc:format>
        <dc:type
           rdf:resource="http://purl.org/dc/dcmitype/StillImage" />
        <dc:title></dc:title>
      </cc:Work>
    </rdf:RDF>
  </metadata>
  <defs
     id="defs6" />
  <path
     id="path8532-9"
     d="M 4,1.5000001 V 74.5 H 82 V 1.5000001 Z m 134,0 V 74.5 h 78 V 1.5000001 Z m 143,0 V 74.5 h 83 V 1.5000001 Z m 139,0 V 74.5 h 77 V 1.5000001 Z m -414,2 H 80 V 72.5 H 6 Z m 134,0 h 74 V 72.5 h -74 z m 143,0 h 79 V 72.5 h -79 z m 139,0 h 73 V 72.5 H 422 Z M 15,23.5 v 2 h 55 v -2 z m 100.04297,0 c 3.95833,4 7.91667,8 11.875,12 H 92.480469 v 3 h 34.437501 c -3.95833,4 -7.91667,8 -11.875,12 h 3.99609 c 4.14714,-4.184892 8.29428,-8.36979 12.44141,-12.554687 V 36.052735 C 127.33405,31.867777 123.18652,27.683921 119.03906,23.5 Z m 139.51953,0 c 3.95833,4 7.91667,8 11.875,12 H 232 v 3 h 34.4375 c -3.95833,4 -7.91667,8 -11.875,12 h 3.99609 C 262.70573,46.315108 266.85287,42.13021 271,37.945313 V 36.052735 C 266.85358,31.867777 262.70605,27.683921 258.55859,23.5 Z m 141.64648,0 c 3.95833,4 7.91667,8 11.875,12 h -34.4375 v 3 h 34.4375 c -3.95833,4 -7.91667,8 -11.875,12 h 3.9961 c 4.14714,-4.184892 8.29427,-8.36979 12.4414,-12.554687 V 36.052735 C 408.50006,31.867777 404.35254,27.683921 400.20508,23.5 Z M 431,23.5 v 2 h 55 v -2 z m -416,5 v 2 h 55 v -2 z m 416,0 v 2 h 55 v -2 z M 318,29 v 5 h -1.75586 c -0.82993,-1 -1.65835,-2 -2.48828,-3 h -2.4082 c -1.56575,1.666667 -3.12957,3.333333 -4.69532,5 1.56511,1.666667 3.13021,3.333333 4.69532,5 H 306 v 9 h 5 v 1.753907 l -3,2.490234 v 2.609375 c 1.77497,1.396188 3.54925,2.793265 5.32422,4.189453 1.43467,-1.347801 2.87002,-2.695168 4.30469,-4.042969 H 319 v 5 h 8 v -5 h 1.07031 c 1.68843,1.106299 3.37603,2.21206 5.06446,3.31836 l 5.26562,-5.263672 C 336.93375,53.493515 335.46665,51.932262 334,50.371094 V 49 h 6 v -8 h -6 v -1.755859 l 3,-2.490234 v -2.40625 c -1.66667,-1.565754 -3.33333,-3.131514 -5,-4.697266 -1.66667,1.565752 -3.33333,3.131512 -5,4.697266 V 29 Z m -147,1.5 v 5 h -1.75586 c -0.82993,-1 -1.65835,-2 -2.48828,-3 h -2.4082 c -1.56575,1.666667 -3.12957,3.333333 -4.69532,5 1.56511,1.666667 3.13021,3.333333 4.69532,5 H 159 v 9 h 5 v 1.753907 l -3,2.490234 v 2.609375 c 1.77497,1.396188 3.54925,2.793265 5.32422,4.189453 1.43467,-1.347801 2.87002,-2.695168 4.30469,-4.042969 H 172 v 5 h 8 v -5 h 1.07031 c 1.68843,1.106299 3.37603,2.21206 5.06446,3.31836 l 5.26562,-5.263672 C 189.93375,54.993515 188.46665,53.432262 187,51.871094 V 50.5 h 6 v -8 h -6 v -1.755859 l 3,-2.490234 v -2.40625 c -1.66667,-1.565754 -3.33333,-3.131514 -5,-4.697266 -1.66667,1.565752 -3.33333,3.131512 -5,4.697266 V 30.5 Z m -156,3 v 2 h 55 v -2 z m 416,0 v 2 h 55 v -2 z m -416,5 v 2 h 55 v -2 z m 416,0 v 2 h 55 v -2 z M 318.86523,39.59961 H 326 L 328.40039,42 v 7.134766 c -0.96667,0.611541 -1.93372,1.222443 -2.90039,1.833984 -2.12767,0.01068 -4.00598,0.02074 -6.09961,0.03125 L 317,48.59961 317.03125,42.5 Z m -147,1.5 H 179 L 181.40039,43.5 v 7.134766 c -0.96667,0.611541 -1.93372,1.222443 -2.90039,1.833984 -2.12767,0.01068 -4.00598,0.02074 -6.09961,0.03125 L 170,50.09961 170.03125,44 Z M 15,43.5 v 2 h 55 v -2 z m 416,0 v 2 h 55 v -2 z m -416,5 v 2 h 55 v -2 z m 416,0 v 2 h 55 v -2 z"
     style="fill:#000000" />
  <text
     id="text9209"
     y="19.885723"
     x="43.339935"
     style="font-style:normal;font-variant:normal;font-weight:bold;font-stretch:normal;font-size:14.18533325px;line-height:125%;font-family:'Noto Sans CJK SC';-inkscape-font-specification:'Noto Sans CJK SC, Bold';font-variant-ligatures:normal;font-variant-caps:normal;font-variant-numeric:normal;font-feature-settings:normal;text-align:center;letter-spacing:0px;word-spacing:0px;writing-mode:lr-tb;text-anchor:middle;display:inline;fill:#000000;fill-opacity:1;stroke:none;stroke-width:1px;stroke-linecap:butt;stroke-linejoin:miter;stroke-opacity:1"
     xml:space="preserve"><tspan
       style="font-style:normal;font-variant:normal;font-weight:bold;font-stretch:normal;font-size:14.18533325px;font-family:'Noto Sans CJK SC';-inkscape-font-specification:'Noto Sans CJK SC, Bold';font-variant-ligatures:normal;font-variant-caps:normal;font-variant-numeric:normal;font-feature-settings:normal;text-align:center;writing-mode:lr-tb;text-anchor:middle;stroke-width:1px"
       y="19.885723"
       x="43.339935"
       id="tspan9207">Source</tspan></text>
  <text
     id="text9209-0"
     y="65.508919"
     x="42.964859"
     style="font-style:normal;font-variant:normal;font-weight:bold;font-stretch:normal;font-size:14.18533325px;line-height:125%;font-family:'Noto Sans CJK SC';-inkscape-font-specification:'Noto Sans CJK SC, Bold';font-variant-ligatures:normal;font-variant-caps:normal;font-variant-numeric:normal;font-feature-settings:normal;text-align:center;letter-spacing:0px;word-spacing:0px;writing-mode:lr-tb;text-anchor:middle;display:inline;fill:#000000;fill-opacity:1;stroke:none;stroke-width:1px;stroke-linecap:butt;stroke-linejoin:miter;stroke-opacity:1"
     xml:space="preserve"><tspan
       y="65.508919"
       x="42.964859"
       id="tspan9229">Code</tspan></text>
  <text
     id="text9209-04"
     y="20.547146"
     x="177.41278"
     style="font-style:normal;font-variant:normal;font-weight:bold;font-stretch:normal;font-size:14.18533325px;line-height:125%;font-family:'Noto Sans CJK SC';-inkscape-font-specification:'Noto Sans CJK SC, Bold';font-variant-ligatures:normal;font-variant-caps:normal;font-variant-numeric:normal;font-feature-settings:normal;text-align:center;letter-spacing:0px;word-spacing:0px;writing-mode:lr-tb;text-anchor:middle;display:inline;fill:#000000;fill-opacity:1;stroke:none;stroke-width:1px;stroke-linecap:butt;stroke-linejoin:miter;stroke-opacity:1"
     xml:space="preserve"><tspan
       y="20.547146"
       x="177.41278"
       id="tspan9239">Compiler</tspan></text>
  <text
     id="text9209-00"
     y="20.62376"
     x="323.21588"
     style="font-style:normal;font-variant:normal;font-weight:bold;font-stretch:normal;font-size:14.18533325px;line-height:125%;font-family:'Noto Sans CJK SC';-inkscape-font-specification:'Noto Sans CJK SC, Bold';font-variant-ligatures:normal;font-variant-caps:normal;font-variant-numeric:normal;font-feature-settings:normal;text-align:center;letter-spacing:0px;word-spacing:0px;writing-mode:lr-tb;text-anchor:middle;display:inline;fill:#000000;fill-opacity:1;stroke:none;stroke-width:1px;stroke-linecap:butt;stroke-linejoin:miter;stroke-opacity:1"
     xml:space="preserve"><tspan
       y="20.62376"
       x="323.21588"
       id="tspan9249">Assembler</tspan></text>
  <text
     id="text9209-7"
     y="19.189922"
     x="458.25946"
     style="font-style:normal;font-variant:normal;font-weight:bold;font-stretch:normal;font-size:14.18533325px;line-height:125%;font-family:'Noto Sans CJK SC';-inkscape-font-specification:'Noto Sans CJK SC, Bold';font-variant-ligatures:normal;font-variant-caps:normal;font-variant-numeric:normal;font-feature-settings:normal;text-align:center;letter-spacing:0px;word-spacing:0px;writing-mode:lr-tb;text-anchor:middle;display:inline;fill:#000000;fill-opacity:1;stroke:none;stroke-width:1px;stroke-linecap:butt;stroke-linejoin:miter;stroke-opacity:1"
     xml:space="preserve"><tspan
       y="19.189922"
       x="458.25946"
       id="tspan9259">Machine</tspan></text>
  <text
     id="text9209-9"
     y="65.509621"
     x="460.23859"
     style="font-style:normal;font-variant:normal;font-weight:bold;font-stretch:normal;font-size:14.18533325px;line-height:125%;font-family:'Noto Sans CJK SC';-inkscape-font-specification:'Noto Sans CJK SC, Bold';font-variant-ligatures:normal;font-variant-caps:normal;font-variant-numeric:normal;font-feature-settings:normal;text-align:center;letter-spacing:0px;word-spacing:0px;writing-mode:lr-tb;text-anchor:middle;display:inline;fill:#000000;fill-opacity:1;stroke:none;stroke-width:1px;stroke-linecap:butt;stroke-linejoin:miter;stroke-opacity:1"
     xml:space="preserve"><tspan
       y="65.509621"
       x="460.23859"
       id="tspan9269">Code</tspan></text>
</svg>
